<?xml version="1.0" encoding="iso-8859-1"?>
<!-- Generator: Adobe Illustrator 16.0.0, SVG Export Plug-In . SVG Version: 6.00 Build 0)  -->
<!DOCTYPE svg PUBLIC "-//W3C//DTD SVG 1.1//EN" "http://www.w3.org/Graphics/SVG/1.1/DTD/svg11.dtd">
<svg version="1.1" id="Capa_1" xmlns="http://www.w3.org/2000/svg" xmlns:xlink="http://www.w3.org/1999/xlink" x="0px" y="0px"
	 width="308.328px" height="308.327px" viewBox="0 0 308.328 308.327" style="enable-background:new 0 0 308.328 308.327;"
	 xml:space="preserve">
<g>
	<g>
		<path d="M13.623,264.959l212.398,43.2c0.532,0.115,1.076,0.168,1.613,0.168c1.852,0,3.671-0.643,5.126-1.824
			c1.883-1.54,2.975-3.839,2.975-6.275V87.827c0-3.85-2.705-7.162-6.476-7.931v-0.008l-16.279-3.33
			c-0.132-0.021-0.27-0.037-0.406-0.061c-2.299-0.356-4.609-0.686-6.908-1.083c-0.222-0.04-0.433-0.087-0.654-0.127
			c-1.007-0.171-2.004-0.388-3.011-0.569c-1.171-0.216-2.347-0.443-3.518-0.67c-3.575-0.688-7.14-1.405-10.694-2.188
			c-1.171-0.258-2.331-0.54-3.491-0.81c-1.007-0.231-2.024-0.464-3.032-0.701c-1.672-0.4-3.354-0.741-5.015-1.168
			c-0.011-0.005-0.021-0.011-0.032-0.016c-0.095-0.021-0.142-0.082-0.231-0.108c-0.085-0.026-0.143-0.082-0.222-0.108l-14.302-2.927
			c0,0.026-0.005,0.055-0.005,0.082c-0.006,0.356-0.059,0.659-0.059,1.026c0,6.808,1.382,12.124,3.122,16.06
			c0.011,0.026,0.021,0.053,0.032,0.074l8.279,1.685l0,0l46.701,10.006v38.762L23.336,93.81V54.541l6.497,1.323
			c-0.475-3.333-0.73-6.781-0.73-10.336c0-2.139,0.119-4.224,0.292-6.286l-12.551-2.547c-2.375-0.482-4.849,0.129-6.739,1.661
			c-1.883,1.54-2.974,3.839-2.974,6.275v212.396C7.136,260.877,9.842,264.199,13.623,264.959z M219.535,150.246v140.068
			L23.336,250.409v-140.07L219.535,150.246z"/>
		<path d="M246.735,253.927l29.384,9.534l-31.878,24.985c-3.522,2.764-4.14,7.853-1.376,11.37c1.598,2.035,3.976,3.111,6.381,3.111
			c1.75,0,3.512-0.564,4.988-1.725l43.859-34.378c2.357-1.846,3.496-4.841,2.979-7.794c-0.522-2.942-2.626-5.368-5.474-6.286
			l-43.859-14.228c-4.251-1.376-8.822,0.949-10.204,5.21C240.143,247.989,242.479,252.556,246.735,253.927z"/>
		<path d="M65.819,91.062c4.474,0,8.1-3.625,8.1-8.1c0-4.478-3.626-8.1-8.1-8.1c-4.749,0-9.814-5.616-12.707-14.262
			c-1.463-4.363-2.41-9.444-2.41-15.071c0-0.664,0.087-1.273,0.114-1.928c0.596-15.791,8.15-27.406,15.008-27.406
			c6.127,0,12.841,9.284,14.628,22.526c5.502,1.294,11.027,2.465,16.577,3.515C95.902,18.307,82.618,0,65.825,0
			C49.472,0,36.436,17.342,34.714,40.334c-0.129,1.706-0.211,3.438-0.211,5.205c0,3.992,0.375,7.826,1.004,11.491
			C38.933,76.805,51.001,91.062,65.819,91.062z"/>
		<path d="M134.722,60.558l-28.205-5.769c-0.923-0.145-1.846-0.269-2.769-0.419c-1.35-0.222-2.695-0.443-4.04-0.675
			c-1.004-0.174-2.004-0.391-3.008-0.572c-1.171-0.216-2.344-0.443-3.515-0.67c-3.576-0.686-7.146-1.405-10.697-2.188
			c-1.168-0.258-2.328-0.54-3.488-0.81c-1.01-0.231-2.025-0.464-3.035-0.701c-0.385-0.092-0.772-0.174-1.155-0.271
			c-1.287-0.311-2.582-0.572-3.863-0.896c-0.037-0.011-0.058-0.037-0.098-0.047l-0.026,0.134l-14.671-2.987
			c-0.005,0.293-0.05,0.546-0.05,0.844c0,6.972,1.447,12.382,3.246,16.34l75.764,15.406c-0.005-0.031-0.005-0.068-0.013-0.108
			c-0.448-3.24-0.696-6.592-0.696-10.043c0-2.199,0.129-4.348,0.314-6.465C134.717,60.626,134.722,60.595,134.722,60.558z"/>
		<path d="M156.126,64.935c0.67-15.649,8.174-27.14,14.993-27.14c6.127,0,12.841,9.284,14.628,22.525
			c5.5,1.295,11.027,2.465,16.574,3.515C201.194,39.907,187.916,21.6,171.12,21.6c-16.282,0-29.271,17.2-31.085,40.046
			c-0.005,0.034-0.005,0.071-0.01,0.103c-0.134,1.767-0.227,3.554-0.227,5.384c0,3.889,0.351,7.62,0.958,11.201
			c0.005,0.032,0.01,0.069,0.016,0.1c3.38,19.884,15.48,34.232,30.349,34.232c4.477,0,8.1-3.623,8.1-8.1
			c0-4.478-3.623-8.101-8.1-8.101c-4.783,0-9.883-5.703-12.772-14.457c-0.011-0.026-0.016-0.053-0.026-0.079
			c-1.411-4.306-2.328-9.284-2.328-14.792c0-0.728,0.098-1.397,0.124-2.106C156.126,64.99,156.126,64.964,156.126,64.935z"/>
	</g>
</g>
<g>
</g>
<g>
</g>
<g>
</g>
<g>
</g>
<g>
</g>
<g>
</g>
<g>
</g>
<g>
</g>
<g>
</g>
<g>
</g>
<g>
</g>
<g>
</g>
<g>
</g>
<g>
</g>
<g>
</g>
</svg>
