<?xml version="1.0" encoding="iso-8859-1"?>
<!-- Generator: Adobe Illustrator 16.0.0, SVG Export Plug-In . SVG Version: 6.00 Build 0)  -->
<!DOCTYPE svg PUBLIC "-//W3C//DTD SVG 1.1//EN" "http://www.w3.org/Graphics/SVG/1.1/DTD/svg11.dtd">
<svg version="1.1" id="Capa_1" xmlns="http://www.w3.org/2000/svg" xmlns:xlink="http://www.w3.org/1999/xlink" x="0px" y="0px"
	 width="370.013px" height="370.014px" viewBox="0 0 370.013 370.014" style="enable-background:new 0 0 370.013 370.014;"
	 xml:space="preserve">
<g>
	<g>
		<polygon points="65.053,98.41 0,268.422 132.783,268.422 		"/>
		<path d="M284.01,102.52L70.795,95.978l68.695,172.444l2.238,5.614l228.285-0.943l-70.926-170.113L284.01,102.52z M104.934,119.953
			c0.024-1.72,1.458-3.087,3.169-2.917l168.977,2.774l5.968,0.1c1.729,0.024,3.105,0.88,3.068,2.6c-0.024,1.702-1.418,2.5-3.117,2.5
			c-0.013,0-0.024,0-0.049,0l-7.91-0.1l-167.037-2.095C106.283,122.791,104.91,121.674,104.934,119.953z M197.337,184.1
			l13.969,29.965l-29.959-1.011l-13.972-29.962L197.337,184.1z M183.962,140.681l29.962,1.008l13.968,29.956l-29.952-1.011
			L183.962,140.681z M205.174,183.092l29.952,1.008l8.72,18.693l5.255,11.271l-9.639-0.323l-20.313-0.688L205.174,183.092z
			 M237.903,170.633l-13.975-29.958l29.965,1.008l7.758,16.647l6.211,13.314l-11.387-0.386L237.903,170.633z M141.387,213.054
			l-13.975-29.962l29.961,1.008l13.972,29.965L141.387,213.054z M162.592,255.465l-13.975-29.953l29.956,1.011l13.975,29.959
			L162.592,255.465z M222.473,256.141l-19.911-0.676l-13.975-29.953l29.952,1.005l8.501,18.225l5.474,11.733L222.473,256.141z
			 M242.519,255.465l-10.645-22.811l-3.33-7.143l6.119,0.201l23.839,0.81l13.975,29.959L242.519,255.465z M259.118,213.054
			l-10.425-22.348l-3.556-7.614l6.516,0.216l23.442,0.792l13.975,29.965L259.118,213.054z M329.034,214.064l-29.959-1.011
			l-13.969-29.962l29.953,1.008L329.034,214.064z M277.873,170.633l-11.381-24.384l-2.6-5.568l4.762,0.161l25.19,0.847
			l13.975,29.956L277.873,170.633z"/>
	</g>
</g>
<g>
</g>
<g>
</g>
<g>
</g>
<g>
</g>
<g>
</g>
<g>
</g>
<g>
</g>
<g>
</g>
<g>
</g>
<g>
</g>
<g>
</g>
<g>
</g>
<g>
</g>
<g>
</g>
<g>
</g>
</svg>
